<svg xmlns="http://www.w3.org/2000/svg" viewBox="0 0 1440 320" preserveAspectRatio="none"><path fill="#fff" fill-opacity="1" d="M0,96L26.7,122.7C53.3,149,107,203,160,192C213.3,181,267,107,320,101.3C373.3,96,427,160,480,176C533.3,192,587,160,640,154.7C693.3,149,747,171,800,197.3C853.3,224,907,256,960,229.3C1013.3,203,1067,117,1120,74.7C1173.3,32,1227,32,1280,42.7C1333.3,53,1387,75,1413,85.3L1440,96L1440,320L1413.3,320C1386.7,320,1333,320,1280,320C1226.7,320,1173,320,1120,320C1066.7,320,1013,320,960,320C906.7,320,853,320,800,320C746.7,320,693,320,640,320C586.7,320,533,320,480,320C426.7,320,373,320,320,320C266.7,320,213,320,160,320C106.7,320,53,320,27,320L0,320Z"></path></svg>